HIERARCHY
ROOT hip
{
  OFFSET 0 0 0
  CHANNELS 6 Xposition Yposition Zposition Zrotation Yrotation Xrotation
  JOINT abdomen
  {
    OFFSET 0 20.6881 -0.73152
    CHANNELS 3 Zrotation Xrotation Yrotation
    JOINT chest
    {
      OFFSET 0 11.7043 -0.48768
      CHANNELS 3 Zrotation Xrotation Yrotation
      JOINT neck
      {
        OFFSET 0 22.1894 -2.19456
        CHANNELS 3 Zrotation Xrotation Yrotation
        JOINT head
        {
          OFFSET -0.24384 7.07133 1.2192
          CHANNELS 3 Zrotation Xrotation Yrotation
          JOINT leftEye
          {
            OFFSET 4.14528 8.04674 8.04672
            CHANNELS 3 Zrotation Xrotation Yrotation
            End Site
            {
              OFFSET 1 0 0
            }
          }
          JOINT rightEye
          {
            OFFSET -3.6576 8.04674 8.04672
            CHANNELS 3 Zrotation Xrotation Yrotation
            End Site
            {
              OFFSET 1 0 0
            }
          }
        }
      }
      JOINT rCollar
      {
        OFFSET -2.68224 19.2634 -4.8768
        CHANNELS 3 Zrotation Xrotation Yrotation
        JOINT rShldr
        {
          OFFSET -8.77824 -1.95073 1.46304
          CHANNELS 3 Zrotation Xrotation Yrotation
          JOINT rForeArm
          {
            OFFSET -28.1742 -1.7115 0.48768
            CHANNELS 3 Zrotation Xrotation Yrotation
            JOINT rHand
            {
              OFFSET -22.5879 0.773209 7.07136
              CHANNELS 3 Zrotation Xrotation Yrotation
              JOINT rThumb1
              {
                OFFSET -1.2192 -0.487915 3.41376
                CHANNELS 3 Zrotation Xrotation Yrotation
                JOINT rThumb2
                {
                  OFFSET -3.37035 -0.52449 3.41376
                  CHANNELS 3 Zrotation Xrotation Yrotation
                  End Site
                  {
                    OFFSET -1.78271 -1.18214 1.43049
                  }
                }
              }
              JOINT rIndex1
              {
                OFFSET -7.75947 0.938293 5.60832
                CHANNELS 3 Zrotation Xrotation Yrotation
                JOINT rIndex2
                {
                  OFFSET -2.54057 -0.884171 1.56538
                  CHANNELS 3 Zrotation Xrotation Yrotation
                  End Site
                  {
                    OFFSET -1.62519 -0.234802 1.16502
                  }
                }
              }
              JOINT rMid1
              {
                OFFSET -8.24714 1.18213 3.41376
                CHANNELS 3 Zrotation Xrotation Yrotation
                JOINT rMid2
                {
                  OFFSET -3.10165 -0.590103 1.0647
                  CHANNELS 3 Zrotation Xrotation Yrotation
                  End Site
                  {
                    OFFSET -2.48547 -0.328903 0.83742
                  }
                }
              }
              JOINT rRing1
              {
                OFFSET -8.82822 0.546677 1.51678
                CHANNELS 3 Zrotation Xrotation Yrotation
                JOINT rRing2
                {
                  OFFSET -2.60934 -0.819778 -0.0198488
                  CHANNELS 3 Zrotation Xrotation Yrotation
                  End Site
                  {
                    OFFSET -2.33842 -0.294052 0.168128
                  }
                }
              }
              JOINT rPinky1
              {
                OFFSET -8.27202 -0.0477905 -0.4584
                CHANNELS 3 Zrotation Xrotation Yrotation
                JOINT rPinky2
                {
                  OFFSET -1.82734 -0.647385 -0.700984
                  CHANNELS 3 Zrotation Xrotation Yrotation
                  End Site
                  {
                    OFFSET -1.69225 -0.51767 -0.607171
                  }
                }
              }
            }
          }
        }
      }
      JOINT lCollar
      {
        OFFSET 2.68224 19.2634 -4.8768
        CHANNELS 3 Zrotation Xrotation Yrotation
        JOINT lShldr
        {
          OFFSET 8.77824 -1.95073 1.46304
          CHANNELS 3 Zrotation Xrotation Yrotation
          JOINT lForeArm
          {
            OFFSET 28.1742 -1.7115 0.48768
            CHANNELS 3 Zrotation Xrotation Yrotation
            JOINT lHand
            {
              OFFSET 22.5879 0.773209 7.07136
              CHANNELS 3 Zrotation Xrotation Yrotation
              JOINT lThumb1
              {
                OFFSET 1.2192 -0.487915 3.41376
                CHANNELS 3 Zrotation Xrotation Yrotation
                JOINT lThumb2
                {
                  OFFSET 3.37035 -0.52449 3.41376
                  CHANNELS 3 Zrotation Xrotation Yrotation
                  End Site
                  {
                    OFFSET 1.78271 -1.18214 1.43049
                  }
                }
              }
              JOINT lIndex1
              {
                OFFSET 7.75947 0.938293 5.60832
                CHANNELS 3 Zrotation Xrotation Yrotation
                JOINT lIndex2
                {
                  OFFSET 2.54057 -0.884171 1.56538
                  CHANNELS 3 Zrotation Xrotation Yrotation
                  End Site
                  {
                    OFFSET 1.62519 -0.234802 1.16502
                  }
                }
              }
              JOINT lMid1
              {
                OFFSET 8.24714 1.18213 3.41376
                CHANNELS 3 Zrotation Xrotation Yrotation
                JOINT lMid2
                {
                  OFFSET 3.10165 -0.590103 1.0647
                  CHANNELS 3 Zrotation Xrotation Yrotation
                  End Site
                  {
                    OFFSET 2.48547 -0.328903 0.83742
                  }
                }
              }
              JOINT lRing1
              {
                OFFSET 8.82822 0.546677 1.51678
                CHANNELS 3 Zrotation Xrotation Yrotation
                JOINT lRing2
                {
                  OFFSET 2.60934 -0.819778 -0.0198488
                  CHANNELS 3 Zrotation Xrotation Yrotation
                  End Site
                  {
                    OFFSET 2.33842 -0.294052 0.168128
                  }
                }
              }
              JOINT lPinky1
              {
                OFFSET 8.27202 -0.0477905 -0.4584
                CHANNELS 3 Zrotation Xrotation Yrotation
                JOINT lPinky2
                {
                  OFFSET 1.82734 -0.647385 -0.700984
                  CHANNELS 3 Zrotation Xrotation Yrotation
                  End Site
                  {
                    OFFSET 1.69225 -0.51767 -0.607171
                  }
                }
              }
            }
          }
        }
      }
    }
  }
  JOINT rButtock
  {
    OFFSET -8.77824 4.35084 1.2192
    CHANNELS 3 Zrotation Xrotation Yrotation
    JOINT rThigh
    {
      OFFSET 0 -1.70687 -2.19456
      CHANNELS 3 Zrotation Xrotation Yrotation
      JOINT rShin
      {
        OFFSET 0 -36.8199 0.73152
        CHANNELS 3 Zrotation Xrotation Yrotation
        JOINT rFoot
        {
          OFFSET 0.73152 -45.1104 -5.12064
          CHANNELS 3 Zrotation Xrotation Yrotation
          End Site
          {
            OFFSET -1.1221 -3.69964 12.103
          }
        }
      }
    }
  }
  JOINT lButtock
  {
    OFFSET 8.77824 4.35084 1.2192
    CHANNELS 3 Zrotation Xrotation Yrotation
    JOINT lThigh
    {
      OFFSET 0 -1.70687 -2.19456
      CHANNELS 3 Zrotation Xrotation Yrotation
      JOINT lShin
      {
        OFFSET 0 -36.8199 0.73152
        CHANNELS 3 Zrotation Xrotation Yrotation
        JOINT lFoot
        {
          OFFSET -0.73152 -45.1104 -5.12064
          CHANNELS 3 Zrotation Xrotation Yrotation
          End Site
          {
            OFFSET 1.1221 -3.69964 12.103
          }
        }
      }
    }
  }
}
MOTION
Frames:	5
Frame Time:	0.00833333
-6.8437 85.1388 127.408 0.0 0.0 0.0 0.410561 -0.00336364 0.0117798 0.113451 -0.0053942 0.0196579 -5.23485e-15 7.95139e-16 1.42876e-16 -1.58003e-14 9.54166e-15 4.4416e-16 -0.0 0.0 0.0 -0.0 0.0 0.0 -2.53588e-15 5.82377e-18 1.98785e-16 -5.37144e-14 -1.18028e-16 2.38542e-15 -9.51483e-13 2.88238e-13 5.08889e-14 -1.08808e-11 -2.56556e-13 2.79889e-13 -2.56707e-11 7.19043e-14 7.25166e-13 -4.43437e-11 1.20861e-13 1.25473e-12 -2.56675e-11 7.03698e-14 7.12444e-13 7.73091 5.47488 0.417314 -2.56712e-11 7.16619e-14 7.25166e-13 2.90554 0.965183 0.102902 -2.56709e-11 7.16619e-14 7.24371e-13 10.2786 0.731801 0.0259123 -2.56768e-11 7.67309e-14 7.31528e-13 2.22167 -0.733487 -0.20892 -2.63269e-15 6.21202e-18 0.0 -5.76308e-14 2.98177e-16 3.97569e-16 -9.49694e-13 -2.77503e-13 2.8625e-14 -1.08784e-11 3.16589e-13 3.11694e-13 -2.5657e-11 8.40093e-14 7.28347e-13 -4.43008e-11 1.43125e-13 1.25075e-12 -2.56595e-11 8.42847e-14 7.37889e-13 -7.73091 5.47488 -0.417314 -2.56555e-11 8.38871e-14 7.21986e-13 -2.90554 0.965183 -0.102902 -2.56653e-11 8.43841e-14 7.25962e-13 -10.2786 0.731801 -0.0259123 -2.56482e-11 8.5875e-14 7.18805e-13 -2.22167 -0.733487 0.20892 -2.03217e-16 0.0 -3.88251e-19 0.771175 -4.17175 -0.0657012 -0.00265893 2.0054 -0.0183067 -0.462421 2.16694 0.0961803 2.03217e-16 0.0 3.88251e-19 -0.142665 -2.55999 0.0260561 0.00715907 -0.914029 0.0621355 0.453183 3.47455 -0.12114
-6.11068 83.7427 124.217 178.679 -3.8052 -152.368 -1.19876 -8.75203 -1.12402 0.904456 3.85978 -0.429278 -0.261898 3.18169 -0.744484 2.16837 -4.06725 -1.45361 -0.0 0.0 0.0 -0.0 0.0 0.0 -6.54536e-15 -3.85599e-14 -5.94094e-14 22.7989 1.53018 -1.30897 -4.42063 -2.0502 6.85893 0.000674576 -0.576165 -0.0809599 3.24447e-10 -1.19452e-09 2.5812e-10 5.61927e-10 -2.06754e-09 4.45671e-10 3.24458e-10 -1.19452e-09 2.58111e-10 7.73091 5.47488 0.417314 3.24446e-10 -1.19452e-09 2.58122e-10 2.90554 0.965183 0.102902 3.2445e-10 -1.19452e-09 2.5812e-10 10.2786 0.731801 0.0259123 3.24443e-10 -1.19451e-09 2.58127e-10 2.22167 -0.733487 -0.20892 -6.59855e-15 -3.85597e-14 -5.95605e-14 -20.9365 5.20991 -0.290928 3.12827 -1.25701 -5.05007 -0.00196993 0.986129 -0.138518 4.95341e-10 1.52898e-10 -8.05873e-10 8.53323e-10 2.63547e-10 -1.39564e-09 4.9534e-10 1.52897e-10 -8.05863e-10 -7.73091 5.47488 -0.417314 4.95342e-10 1.52897e-10 -8.05881e-10 -2.90554 0.965183 -0.102902 4.95335e-10 1.52898e-10 -8.05877e-10 -10.2786 0.731801 -0.0259123 4.95351e-10 1.52901e-10 -8.05885e-10 -2.22167 -0.733487 0.20892 -2.03217e-16 0.0 -3.88251e-19 0.961799 -12.0033 1.56332 0.00344732 4.30935 0.0448956 -0.669198 -1.8577 -0.846079 2.03217e-16 0.0 3.88251e-19 -1.05904 -9.04516 -1.62935 0.0100734 0.721595 0.0521283 0.585971 2.01702 -0.826729
-6.13579 83.7697 124.151 178.628 -3.8918 -152.632 -3.29261 -17.9844 -2.41572 1.80604 7.94256 -0.910444 -0.445203 6.53946 -1.54066 4.23038 -8.35733 -3.01805 -0.0 0.0 0.0 -0.0 0.0 0.0 -1.02335e-14 -8.18966e-14 -1.23613e-13 46.9789 3.14214 -2.69834 -8.56539 -4.12045 14.1396 -0.000382658 -1.18441 -0.166455 6.90989e-10 -2.49729e-09 5.38805e-10 1.1967e-09 -4.32245e-09 9.30278e-10 6.91009e-10 -2.49729e-09 5.388e-10 7.73091 5.47488 0.417314 6.90989e-10 -2.49729e-09 5.38809e-10 2.90554 0.965183 0.102902 6.90994e-10 -2.49729e-09 5.38806e-10 10.2786 0.731801 0.0259123 6.90987e-10 -2.49729e-09 5.38813e-10 2.22167 -0.733487 -0.20892 -1.02389e-14 -8.18965e-14 -1.23709e-13 -43.0102 10.7227 -0.606984 6.19739 -2.55449 -10.3997 0.00113225 2.02213 -0.28418 1.05201e-09 3.11816e-10 -1.69495e-09 1.81231e-09 5.37437e-10 -2.93527e-09 1.05201e-09 3.11815e-10 -1.69494e-09 -7.73091 5.47488 -0.417314 1.05201e-09 3.11815e-10 -1.69496e-09 -2.90554 0.965183 -0.102902 1.05201e-09 3.11816e-10 -1.69496e-09 -10.2786 0.731801 -0.0259123 1.05202e-09 3.11821e-10 -1.69497e-09 -2.22167 -0.733487 0.20892 -2.03217e-16 0.0 -3.88251e-19 1.67833 -20.2562 3.41992 0.00433022 6.74597 0.112179 -1.03159 -6.11078 -1.84592 2.03217e-16 0.0 3.88251e-19 -2.44773 -15.8781 -3.47153 0.0137821 2.45079 0.041579 0.687337 0.477302 -1.57006
-6.2157 83.8518 123.961 178.437 -4.1869 -153.295 -5.55833 -26.2059 -3.74137 2.67135 11.5873 -1.35178 -0.534752 9.53858 -2.26129 5.87454 -12.17 -4.45005 -0.0 0.0 0.0 -0.0 0.0 0.0 -1.45643e-14 -1.15691e-13 -1.78626e-13 68.6068 4.58095 -3.93811 -11.8182 -5.79877 20.6742 -0.00286293 -1.72848 -0.242978 1.02468e-09 -3.5837e-09 7.72909e-10 1.77447e-09 -6.20285e-09 1.3345e-09 1.02471e-09 -3.5837e-09 7.72908e-10 7.73091 5.47488 0.417314 1.02468e-09 -3.5837e-09 7.72915e-10 2.90554 0.965183 0.102902 1.02469e-09 -3.5837e-09 7.72912e-10 10.2786 0.731801 0.0259123 1.02468e-09 -3.58369e-09 7.72918e-10 2.22167 -0.733487 -0.20892 -1.45303e-14 -1.15692e-13 -1.78681e-13 -62.6456 15.6281 -0.902546 8.72752 -3.65404 -15.1781 0.00841064 2.95832 -0.416046 1.53734e-09 4.58525e-10 -2.41908e-09 2.64857e-09 7.90355e-10 -4.18942e-09 1.53734e-09 4.58523e-10 -2.41906e-09 -7.73091 5.47488 -0.417314 1.53734e-09 4.58524e-10 -2.41909e-09 -2.90554 0.965183 -0.102902 1.53734e-09 4.58525e-10 -2.41908e-09 -10.2786 0.731801 -0.0259123 1.53735e-09 4.5853e-10 -2.41909e-09 -2.22167 -0.733487 0.20892 -2.03217e-16 0.0 -3.88251e-19 2.82864 -27.5777 5.32489 0.000247198 8.91722 0.172988 -1.48423 -9.89624 -2.77038 2.03217e-16 0.0 3.88251e-19 -4.0916 -21.9423 -5.26139 0.0176122 3.99284 0.0321953 0.743901 -0.896748 -2.23709
-6.22568 83.8766 123.95 178.412 -4.1563 -153.351 -7.41865 -31.941 -4.82736 3.31467 14.1397 -1.67014 -0.568343 11.6473 -2.76661 6.92525 -14.8196 -5.46566 -0.0 0.0 0.0 -0.0 0.0 0.0 -2.05016e-14 -1.25632e-13 -2.10662e-13 83.7064 5.59608 -4.79323 -13.8488 -6.83312 25.2504 -0.00547443 -2.11213 -0.296977 1.27626e-09 -4.12918e-09 8.90562e-10 2.20975e-09 -7.14695e-09 1.53778e-09 1.27628e-09 -4.12918e-09 8.90562e-10 7.73091 5.47488 0.417314 1.27625e-09 -4.12918e-09 8.90568e-10 2.90554 0.965183 0.102902 1.27626e-09 -4.12918e-09 8.90565e-10 10.2786 0.731801 0.0259123 1.27625e-09 -4.12918e-09 8.90571e-10 2.22167 -0.733487 -0.20892 -2.04494e-14 -1.25632e-13 -2.10712e-13 -76.3034 19.0165 -1.11834 10.3724 -4.3708 -18.5017 0.0163227 3.64503 -0.512975 1.8443e-09 5.74707e-10 -2.73081e-09 3.178e-09 9.90841e-10 -4.72988e-09 1.8443e-09 5.74705e-10 -2.7308e-09 -7.73091 5.47488 -0.417314 1.8443e-09 5.74706e-10 -2.73082e-09 -2.90554 0.965183 -0.102902 1.8443e-09 5.74707e-10 -2.73082e-09 -10.2786 0.731801 -0.0259123 1.84431e-09 5.74713e-10 -2.73083e-09 -2.22167 -0.733487 0.20892 -2.03217e-16 0.0 -3.88251e-19 3.97997 -32.6509 6.90142 -0.00532186 10.4251 0.216114 -1.88131 -12.5231 -3.46511 2.03217e-16 0.0 3.88251e-19 -5.50093 -26.153 -6.62704 0.0205381 5.06707 0.0256922 0.763815 -1.85818 -2.71258
